<svg xmlns="http://www.w3.org/2000/svg" viewBox="0 0 147.62 150.45"><defs><style>.cls-1{fill:#fff;}</style></defs><g id="Layer_2" data-name="Layer 2"><g id="Part_D" data-name="Part D"><path class="cls-1" d="M25.1,71.18H47.55v.18c22.84,0,41.34,18.86,41.34,42.13a42.28,42.28,0,0,1-21.43,37h40.68a30.39,30.39,0,0,1-9.4-5.74L139,97.81a30.92,30.92,0,0,1,8.58,12.76V79.3l-40,46.5a31.59,31.59,0,0,1-2.86-44,30.19,30.19,0,0,1,42.83-3.2V25.68A25.76,25.76,0,0,0,121.93,0H25.68A25.76,25.76,0,0,0,0,25.68v99.08a25.76,25.76,0,0,0,25.1,25.67Z"/></g></g></svg>